<svg width="40" height="40" viewBox="0 0 40 40" fill="none" xmlns="http://www.w3.org/2000/svg">
<g clip-path="url(#clip0_27_312)">
<path d="M12.6734 35.5874C9.68402 34.3192 7.58407 32.4251 7.18055 33.1745C7.02408 33.4957 7.32878 34.171 8.037 35.1015C8.43228 35.5215 8.91815 36.0156 9.52755 36.518C9.84872 36.7485 10.1864 36.9791 10.5487 37.2262C10.7299 37.3415 10.9193 37.4732 11.1169 37.5885C11.3228 37.6873 11.5287 37.7944 11.7428 37.9015C13.258 38.7085 14.9215 39.2108 16.6015 39.5979C17.4497 39.7296 18.3062 39.9108 19.1708 39.9355L19.8214 39.9767C20.0355 39.9932 20.2579 40.0096 20.472 39.9932L21.7731 39.952C23.5025 39.812 25.2401 39.5238 26.8707 38.9226C27.7106 38.6756 28.4847 38.272 29.2836 37.9097C29.6788 37.7285 30.0412 37.4815 30.42 37.2673C30.7906 37.0368 31.1776 36.8391 31.5317 36.5591L32.4047 35.9086L32.8411 35.5792L33.2035 35.2497L33.9281 34.5909L34.1093 34.4262L34.1999 34.3439L34.2411 34.3027L34.2987 34.2533L34.307 34.2451L34.3152 34.2368L34.3399 34.2121L34.694 33.8251C35.1552 33.298 35.6493 32.8039 36.0446 32.2192C36.4563 31.651 36.8845 31.0993 37.214 30.4816C38.6469 28.0852 39.5527 25.3759 39.8657 22.6171C40.1786 19.8583 39.9315 17.0255 39.0751 14.3902L38.721 13.4103C38.5974 13.0891 38.4986 12.7515 38.3339 12.4468L37.8892 11.508L37.6669 11.0386C37.5845 10.8903 37.4939 10.7421 37.4034 10.5939L36.8681 9.70447C36.7775 9.55624 36.6951 9.408 36.5881 9.26801L36.2669 8.83978C35.8387 8.2798 35.4187 7.6704 34.9658 7.23394C33.4505 5.32339 31.507 3.64343 29.3 2.42464C27.0848 1.18114 24.606 0.398804 22.0696 0.118811C19.5332 -0.161183 16.9227 0.0529298 14.4521 0.769383L12.6239 1.39525C12.031 1.65054 11.4463 1.93053 10.8616 2.19406C10.2934 2.50699 9.74166 2.83639 9.18991 3.1658C8.63816 3.52814 8.10288 3.94813 7.5676 4.34342L7.36995 4.49165L7.20525 4.63988L6.87585 4.93634L6.21704 5.52927L6.05234 5.6775L5.96999 5.75162L5.88764 5.82574L5.87117 5.85044L5.82176 5.91632L5.50059 6.27043L4.85001 6.98688L4.52885 7.34923C4.43002 7.47275 4.33944 7.60452 4.24062 7.73628L3.66416 8.51861C3.26064 9.02919 2.96418 9.60565 2.62654 10.1574C1.3501 12.4056 0.518353 14.9008 0.180714 17.4537C-0.156925 20.0066 -0.00869287 22.6253 0.617175 25.1206C0.699526 25.4335 0.757171 25.7547 0.864227 26.0511L1.17716 26.9652C1.28422 27.2699 1.3748 27.5746 1.50657 27.8711L1.91008 28.7523C2.05008 29.0405 2.17361 29.3452 2.32184 29.6252L2.80771 30.4652L3.29358 31.2969L3.87827 32.1122C4.4465 32.9686 5.54176 33.6768 5.96999 33.8663C6.82644 34.2039 6.34057 33.1992 5.48412 31.8075C4.1418 29.444 3.14535 26.71 2.73359 23.7783C2.65948 23.4159 2.66771 23.0371 2.62654 22.6665L2.57713 22.1065L2.55242 21.8265V21.5465C2.55242 21.176 2.55242 20.7971 2.56066 20.4183V20.1383L2.58536 19.8583L2.63477 19.2901C2.66771 18.5325 2.83242 17.7831 2.95594 17.0337C3.01359 16.6549 3.14535 16.2925 3.23594 15.922C3.34299 15.5514 3.41711 15.1808 3.56534 14.8267C4.12533 13.0644 5.03942 11.4421 6.13469 9.97623C6.42292 9.62212 6.66997 9.22683 6.99937 8.90566L7.46878 8.40332L7.69936 8.15627L7.81465 8.03274L7.8723 7.96686L7.90524 7.93392L7.91347 7.92569L8.99227 6.97865L9.28873 6.73983C9.37932 6.65748 9.4699 6.60807 9.56049 6.54219L10.104 6.16337L10.6393 5.78456C10.8205 5.66103 11.0346 5.55398 11.224 5.44692L11.8169 5.10928C12.0145 4.99399 12.2122 4.8787 12.4181 4.79635L13.6616 4.2446C14.0898 4.09636 14.5263 3.95637 14.9545 3.80814C16.6921 3.29756 18.5038 3.04227 20.3155 3.06698C22.1272 3.09992 23.9225 3.44579 25.6272 4.02225L26.2613 4.25283L26.5824 4.36812L26.8871 4.50812L28.1142 5.08458L29.2753 5.77632C29.3741 5.83397 29.473 5.89162 29.5635 5.94926L29.8353 6.1469L30.3788 6.55042L30.9223 6.94571L31.4247 7.39864L31.927 7.85157L32.1823 8.07392L32.207 8.09039L32.2564 8.1398L32.3799 8.2798L33.3764 9.37506C33.6646 9.72917 33.8952 10.075 34.1587 10.4209C35.1716 11.8621 36.0199 13.5173 36.5798 15.2467C37.0492 16.9843 37.2387 18.7878 37.181 20.5748C37.0163 26.2735 33.7964 31.7087 28.9459 34.6074L28.0401 35.1509L27.0848 35.5956L26.6071 35.8262C26.4424 35.8921 26.2777 35.9497 26.113 36.0074L25.1166 36.3615C23.7578 36.7403 22.3743 37.0615 20.9579 37.1109C20.2496 37.185 19.5414 37.1356 18.8332 37.1191C18.4791 37.1274 18.1332 37.045 17.7791 37.0121C17.4332 36.9627 17.0709 36.9462 16.725 36.8638C16.0333 36.6991 15.3251 36.5921 14.658 36.345C14.3204 36.2297 13.9745 36.1391 13.6451 36.0156L12.6734 35.5874Z" fill="white"/>
<path d="M21.3696 14.3902C20.9661 14.3078 20.6284 14.4149 20.3731 14.5714C19.5249 15.0984 19.1543 15.7325 19.0555 16.3748C18.9402 17.1078 18.8002 17.8489 18.7179 18.5901C18.7096 18.5901 18.7096 18.5901 18.7014 18.5901C17.4744 18.4501 16.2391 18.4089 15.0203 18.7466C14.6744 18.8454 14.3862 19.2242 14.4109 19.9653C14.4356 20.6489 14.6827 21.1512 15.0368 21.2253C15.6791 21.3653 16.3214 21.5218 16.972 21.5053C17.5402 21.4888 18.1085 21.4312 18.6767 21.3653C18.6602 21.4559 18.652 21.5465 18.6355 21.6371C18.4955 22.8641 18.4543 24.0994 18.792 25.3181C18.8908 25.664 19.2696 25.9523 20.0108 25.9275C20.6943 25.9028 21.1966 25.6558 21.2707 25.3017C21.4107 24.6593 21.5672 24.017 21.5507 23.3664C21.5343 22.7982 21.4766 22.2218 21.4107 21.6535C22.8272 21.9253 24.2683 21.6535 25.693 21.8018C25.7754 21.81 25.9071 21.5218 25.9483 21.3241C26.0306 20.9206 25.9236 20.583 25.7671 20.3277C25.2401 19.4795 24.606 19.1089 23.9636 19.0101C23.2225 18.8948 22.4895 18.7548 21.7484 18.6724C21.946 17.3384 21.7154 15.9878 21.8554 14.6455C21.8554 14.5549 21.5754 14.4314 21.3696 14.3902Z" fill="white"/>
</g>
<defs>
<clipPath id="clip0_27_312">
<rect width="40" height="40" fill="white"/>
</clipPath>
</defs>
</svg>
