<svg width="40" height="40" viewBox="0 0 40 40" fill="none" xmlns="http://www.w3.org/2000/svg">
<g clip-path="url(#clip0_27_353)">
<path d="M38.4178 39.9419C38.6693 39.8771 38.9126 39.7635 39.1234 39.6013C39.537 39.2931 39.8209 38.7984 39.8777 38.2713C39.8858 38.2064 39.8858 38.1415 39.8858 38.0766V38.028V37.955V37.8009V37.5008L39.8939 36.3005L39.9263 31.4832C39.9344 28.2716 39.9344 25.0681 39.9425 21.8647C39.9263 15.4496 39.8533 9.05082 39.6911 2.66011C39.683 2.43303 39.6749 2.20595 39.6668 1.98697V1.89776V1.87343L39.6587 1.80855C39.6506 1.75989 39.6506 1.71934 39.6425 1.67879C39.61 1.5247 39.5776 1.41927 39.5289 1.29762C39.4235 1.06243 39.2694 0.851569 39.0829 0.689369C38.8963 0.527168 38.6693 0.405517 38.426 0.332527C38.3043 0.300087 38.1827 0.275757 38.061 0.275757H37.9718H37.9394H37.8988C37.469 0.300087 37.0554 0.324417 36.658 0.348747C35.8713 0.405517 35.1576 0.486618 34.5737 0.583938C33.3977 0.778579 32.7084 1.05432 32.8462 1.42738C32.9679 1.75989 33.6735 2.05185 34.817 2.27083C35.3847 2.37626 36.0659 2.47358 36.8364 2.53846C36.9743 2.54657 37.1202 2.56279 37.2662 2.5709C37.2662 2.66011 37.2581 2.74121 37.2581 2.83042C37.1202 9.52931 36.9661 16.285 36.9824 23.0001L37.0229 31.1101L37.0554 35.1651L37.0716 37.1926V37.217L21.1759 37.3954C16.3342 37.1602 11.4601 37.0223 6.57784 36.9412C5.41 36.925 4.24215 36.9088 3.07431 36.8926L3.08242 36.0329C3.09053 33.5837 3.09864 31.1263 3.10675 28.669C3.09864 23.7543 3.09053 18.8396 3.08242 13.9249C3.08242 11.4676 3.08242 9.01027 3.08242 6.55293L3.09864 3.23592L4.06373 3.24403C4.93961 3.25214 6.3021 2.96829 6.73193 2.77365C7.58349 2.37626 6.47241 2.04374 4.81796 1.79233C4.13672 1.6869 3.43115 1.58958 2.70935 1.50037C2.53093 1.47604 2.35251 1.45982 2.16598 1.43549L1.89024 1.40305C1.8578 1.39494 1.76859 1.39494 1.6956 1.41116C1.62261 1.42738 1.54962 1.45171 1.48474 1.50037C1.35498 1.58147 1.25766 1.71934 1.21711 1.87343C1.209 1.91398 1.20089 1.95453 1.20089 1.99508L1.19278 2.06807L1.17656 2.20595C1.16034 2.39248 1.13601 2.57901 1.11979 2.76554C0.965697 4.26589 0.835936 5.81491 0.738616 7.41259C0.527755 10.5998 0.414215 13.9493 0.365554 17.3312C0.300674 21.37 0.243904 25.4331 0.179024 29.5043L0.0898132 35.6112L0.0654831 37.1359L0.057373 37.8982V37.9955V38.0442V38.1658C0.057373 38.1415 0.0654831 38.2956 0.0817032 38.3929C0.0979232 38.4902 0.114143 38.547 0.138473 38.6281C0.187134 38.7741 0.252014 38.9201 0.341224 39.0498C0.511535 39.3094 0.738616 39.5202 1.01436 39.6662C1.15223 39.7392 1.29821 39.796 1.4523 39.8284C1.52529 39.8446 1.60639 39.8608 1.67938 39.869L1.79292 39.8771H1.86591L4.92339 39.9095C13.0659 39.9987 21.2246 40.0149 29.4157 39.8852C31.4432 39.9176 33.4626 39.9419 35.4901 39.9744L37.8988 39.9987H37.9394H38.0529C37.9799 40.0068 38.3449 39.9744 38.4178 39.9419ZM1.8578 38.0523C1.76859 38.0523 1.68749 38.0442 1.8578 38.0523V38.0523ZM1.87402 1.97075C1.87402 1.88154 1.87402 1.79233 1.87402 1.97075V1.97075ZM37.9312 38.0685C37.9394 38.0685 37.9394 38.0685 37.9312 38.0685C37.9312 38.3443 37.9312 38.2632 37.9312 38.0685ZM37.9556 1.99508C38.1664 1.99508 38.1097 1.99508 37.9556 1.99508V1.99508Z" fill="white"/>
<path d="M13.2849 30.1289C13.1308 30.1207 12.9686 30.0153 12.7902 30.0559C12.6361 30.0883 12.4415 30.2667 12.4739 30.6317C12.4901 30.8101 12.5793 31.0291 12.774 31.2237C12.9605 31.4183 13.2606 31.5805 13.6418 31.6049C13.8364 31.6211 14.031 31.5968 14.25 31.5157C14.3068 31.4913 14.3717 31.4589 14.4284 31.4265L14.5339 31.3697L14.5744 31.3454L14.5987 31.3372L14.6474 31.2967H14.6555L14.6636 31.2886L14.7447 31.2399C14.9637 31.1021 15.1908 30.948 15.426 30.7858C15.8964 30.4533 16.4073 30.0559 16.9425 29.6017C17.8914 28.7907 18.8484 27.9797 19.7973 27.1687L19.8297 27.2011L21.2084 28.4987L23.9739 31.0777L24.6876 31.7346C24.9634 31.986 25.3364 32.1726 25.7338 32.2537C26.1312 32.3348 26.5286 32.2942 26.8936 32.1726C27.2585 32.0428 27.591 31.8238 27.8505 31.5319C27.9803 31.3859 28.0938 31.2156 28.1831 31.0372C28.2236 30.948 28.2642 30.8506 28.2966 30.7614C28.329 30.656 28.3615 30.5181 28.3777 30.3965L28.3939 30.3073V30.2748L28.402 30.2181V30.1856L28.4101 30.0559V29.9991V29.7639V29.2935C28.3777 21.1916 28.2155 13.0897 28.1101 4.99585C28.1831 3.87667 28.2479 2.74937 28.2966 1.62208C28.329 0.973273 27.8262 0.421791 27.1855 0.389351L27.0639 0.381241C22.2708 0.12983 17.4535 0.0325094 12.6037 6.92181e-05C11.7278 -0.00804082 11.006 0.697532 11.006 1.58153V1.60586C10.9411 10.3323 11.0871 19.1073 10.9736 27.8337C10.9654 28.4906 11.2493 29.5125 11.4439 29.8369C11.8413 30.4776 12.1738 29.6422 12.4253 28.4014C13.2606 24.2977 13.6255 19.3182 13.7229 14.2575C13.7959 10.5107 13.877 6.76384 13.9499 3.00889C17.8022 3.08188 21.6545 3.13054 25.523 3.14676C25.5311 5.81496 25.5554 8.48317 25.6122 11.1595C25.5797 12.6761 25.5554 14.1926 25.523 15.7092L25.4419 22.9271L25.4256 26.5361V28.442L22.7412 26.0819L22.06 25.4899L21.7194 25.1979L21.549 25.052L21.4679 24.979C21.3139 24.8492 21.4193 24.9384 21.2814 24.833C21.2246 24.7924 21.176 24.76 21.1192 24.7195C21.0624 24.687 21.03 24.6708 20.9813 24.6384C20.8921 24.5897 20.7948 24.5491 20.7056 24.5167C20.5191 24.4518 20.3163 24.3951 20.1217 24.3788C19.7243 24.3383 19.3107 24.3951 18.9376 24.5491C18.7511 24.6221 18.5727 24.7276 18.4186 24.8492L18.305 24.9465L18.2239 25.0195L18.1428 25.1006L17.8184 25.4088L15.2232 27.8986C14.7366 28.369 14.2743 28.8394 13.877 29.2773C13.7796 29.3908 13.6823 29.4963 13.585 29.6017C13.5363 29.6585 13.4958 29.7071 13.4471 29.7639L13.3822 29.845L13.3498 29.8855V29.8937C13.3822 29.8693 13.2849 29.9504 13.4147 29.8369L13.4066 29.845L13.3904 29.8612L13.3255 29.9342C13.3417 29.9261 13.3741 29.9018 13.3985 29.9018C13.4309 29.8937 13.4471 29.8937 13.4471 29.8937C13.4552 29.8937 13.4633 29.9018 13.4715 29.9018C13.5039 29.9099 13.5363 29.9423 13.5444 29.9667C13.5607 30.0396 13.4309 30.1451 13.2849 30.1289ZM26.6016 29.4719C26.6097 29.48 26.6259 29.4882 26.634 29.4963L26.6503 29.5125L26.6259 29.4963L26.6016 29.4719ZM19.8622 26.8037C19.8784 26.7875 19.8784 26.7875 19.8622 26.8037V26.8037Z" fill="white"/>
</g>
<defs>
<clipPath id="clip0_27_353">
<rect width="40" height="40" fill="white"/>
</clipPath>
</defs>
</svg>
