<svg class="svg-icon" style="width: 1em; height: 1em;vertical-align: middle;fill: currentColor;overflow: hidden;" viewBox="0 0 1024 1024" version="1.1" xmlns="http://www.w3.org/2000/svg"><path d="M511.6 148.2c49.7 0 97.9 9.7 143.2 28.9 43.8 18.5 83.2 45.1 117 78.9 33.8 33.8 60.4 73.2 78.9 117 19.2 45.3 28.9 93.5 28.9 143.2s-9.7 97.9-28.9 143.2c-18.5 43.8-45.1 83.2-78.9 117-33.8 33.8-73.2 60.4-117 78.9-45.3 19.2-93.5 28.9-143.2 28.9s-97.9-9.7-143.2-28.9c-43.8-18.5-83.2-45.1-117-78.9-33.8-33.8-60.4-73.2-78.9-117-19.2-45.3-28.9-93.5-28.9-143.2s9.7-97.9 28.9-143.2c18.5-43.8 45.1-83.2 78.9-117 33.8-33.8 73.2-60.4 117-78.9 45.3-19.2 93.5-28.9 143.2-28.9m0-80c-247.4 0-448 200.6-448 448s200.6 448 448 448 448-200.6 448-448-200.6-448-448-448z" fill="#2C2C2C" /><path d="M399.9 661.5L288.8 541.8c-15-16.2-14.1-41.5 2.1-56.5s41.5-14.1 56.5 2.1l58.9 63.4c14.6 15.7 39 17.1 55.3 3.2l217.5-186.2c16.8-14.4 42-12.4 56.4 4.4 14.4 16.8 12.4 42-4.4 56.4L455.3 664.7c-16.3 14-40.8 12.6-55.4-3.2z" fill="#5ABE64" /></svg>