<svg width="25" height="25" viewBox="0 0 25 25" fill="none" xmlns="http://www.w3.org/2000/svg">
<g clip-path="url(#clip0_27_499)">
<path d="M15.4674 12.5006L24.7527 3.21582C25.0824 2.8861 25.0824 2.35255 24.7527 2.02294L22.9782 0.247721C22.8201 0.0897808 22.6057 0.000854492 22.3818 0.000854492C22.1579 0.000854492 21.9434 0.0897808 21.7854 0.247721L12.5 9.53317L3.21468 0.247721C3.05663 0.0897808 2.84215 0.000854492 2.61824 0.000854492C2.39438 0.000854492 2.17985 0.0897808 2.02185 0.247721L0.247287 2.02294C-0.0824291 2.35255 -0.0824291 2.8861 0.247287 3.21582L9.53262 12.5006L0.24821 21.7843C-0.0813439 22.114 -0.0813439 22.6475 0.24821 22.9772L2.02288 24.7524C2.18082 24.9103 2.39535 24.9992 2.61927 24.9992C2.84319 24.9992 3.05766 24.9103 3.21576 24.7524L12.5 15.468L21.7842 24.7524C21.9423 24.9103 22.1567 24.9992 22.3807 24.9992C22.6046 24.9992 22.8191 24.9103 22.977 24.7524L24.7517 22.9772C25.0813 22.6475 25.0813 22.114 24.7517 21.7843L15.4674 12.5006Z" fill="#FF0000"/>
</g>
<defs>
<clipPath id="clip0_27_499">
<rect width="25" height="25" fill="white"/>
</clipPath>
</defs>
</svg>
