<?xml version="1.0" encoding="iso-8859-1"?>
<!-- Generator: Adobe Illustrator 19.0.0, SVG Export Plug-In . SVG Version: 6.00 Build 0)  -->
<svg version="1.1" id="Capa_1" xmlns="http://www.w3.org/2000/svg" xmlns:xlink="http://www.w3.org/1999/xlink" x="0px" y="0px"
	 viewBox="0 0 487.002 487.002" style="enable-background:new 0 0 487.002 487.002;" xml:space="preserve">
<path d="M416.854,74.149C371.618,28.914,311.475,4.001,247.502,4.001S123.386,28.914,78.15,74.149
	C35.216,117.083,10.606,173.45,8.212,233.771c-0.227,0.96-0.263,1.953-0.107,2.924c-0.063,2.264-0.103,4.532-0.103,6.806
	c0,63.973,24.913,124.116,70.148,169.352c12.405,12.405,25.938,23.271,40.356,32.524c-8.769-3.357-16.844-6.776-24.497-10.02
	C63.562,422.455,39.513,412.264,5.784,420.2c-4.032,0.949-6.532,4.986-5.583,9.019c0.949,4.033,4.988,6.531,9.019,5.583
	c28.955-6.813,49.92,2.071,78.936,14.367c35.569,15.073,79.835,33.832,159.346,33.832c63.973,0,124.116-24.913,169.352-70.148
	c45.235-45.236,70.148-105.379,70.148-169.352S462.089,119.385,416.854,74.149z M421.065,385.926L228.892,467.23
	c-13.553-1.105-26.86-3.414-39.797-6.875l254.722-107.767C437.296,364.284,429.701,375.442,421.065,385.926z M393.928,413.695
	c-35.626,30.746-79.424,49.25-126.214,53.398L393.928,413.695z M453.855,332.19c-0.429,0.097-0.856,0.226-1.276,0.404
	L167.277,453.299c-9.202-3.515-18.159-7.646-26.829-12.362l323.303-136.782C461.082,313.727,457.77,323.086,453.855,332.19z
	 M467.98,286.078L124.52,431.388c-7.03-4.622-13.828-9.657-20.362-15.098l367.174-155.343
	C470.684,269.43,469.558,277.815,467.98,286.078z M54.01,357.506l410.063-173.488c1.945,7.125,3.537,14.363,4.772,21.694
	L66.255,376.039C61.852,370.045,57.769,363.861,54.01,357.506z M37.922,324.313l212.463-89.888c0.024-0.01,0.047-0.02,0.071-0.03
	l200.972-85.027c3.057,6.612,5.785,13.37,8.176,20.253L46.768,344.283C43.491,337.772,40.54,331.109,37.922,324.313z
	 M39.681,158.286l104.7,104.7l-25.579,10.822c-0.305-1.322-0.965-2.58-1.996-3.61L30.867,184.26
	C33.271,175.414,36.214,166.742,39.681,158.286z M58.943,121.549l124.788,124.788l-24.445,10.342L46.295,143.688
	C50.073,136.091,54.296,128.703,58.943,121.549z M105.029,279.634l-24.445,10.342l-57.322-57.322
	c0.498-10.531,1.73-20.927,3.651-31.136L105.029,279.634z M23.243,253.849l42.434,42.434l-32.67,13.822
	C27.419,292.029,24.114,273.161,23.243,253.849z M94.157,79.549c8.163-7.647,16.8-14.618,25.845-20.886v46.731L94.157,79.549z
	 M135.002,49.131c8.078-4.694,16.425-8.865,25-12.493v108.757l-25-25V49.131z M175.002,30.924c8.171-2.779,16.515-5.084,25-6.903
	v161.373l-25-25V30.924z M215.002,21.33c8.233-1.187,16.577-1.917,25-2.191V222.53l-2.013,0.851l-22.987-22.987V21.33z
	 M400.002,154.838l-25,10.577V58.664c8.734,6.052,17.087,12.761,25,20.1V154.838z M360.002,171.761l-25,10.577v-145.7
	c8.575,3.628,16.922,7.8,25,12.493V171.761z M320.002,188.684l-25,10.577V24.022c8.485,1.819,16.829,4.124,25,6.903V188.684z
	 M280.002,205.607l-25,10.577V19.138c8.423,0.275,16.767,1.005,25,2.191V205.607z M444.661,135.944l-29.659,12.548V94.029
	C426.571,106.961,436.491,121.018,444.661,135.944z M83.55,90.156l139.533,139.533l-24.445,10.342L67.668,109.06
	C72.582,102.515,77.882,96.206,83.55,90.156z M75.894,388.248l395.013-167.121c0.726,7.388,1.094,14.853,1.094,22.374
	c0,0.294-0.01,0.586-0.011,0.88L91.81,405.227c-1.023-0.986-2.046-1.973-3.054-2.98C84.247,397.737,79.967,393.061,75.894,388.248z"
	/>
<g>
</g>
<g>
</g>
<g>
</g>
<g>
</g>
<g>
</g>
<g>
</g>
<g>
</g>
<g>
</g>
<g>
</g>
<g>
</g>
<g>
</g>
<g>
</g>
<g>
</g>
<g>
</g>
<g>
</g>
</svg>
